# xmcd
#
# Track frame offsets:
#	150
#	12827
#	25540
#	42777
#	66467
#	86572
#	98410
#	115500
#	122405
#	142272
#	157275
#
# Disc length: 2269 seconds
#
# Revision: 1
# Processed by: cddbd v1.5.1PL0 Copyright (c) Steve Scherf et al.
# Submitted via: CDex 1.50Beta5
#
DISCID=8608db0b
DTITLE=有山じゅんじ - あした元気になれ
DYEAR=1900
DGENRE=
TTITLE0=あした元気になれ
TTITLE1=パチンコはやめた!
TTITLE2=Guitar Chime
TTITLE3=眠れぬ夜
TTITLE4=狼男の唄
TTITLE5=ウォーキン ダウン・ザ・ストリート
TTITLE6=Baby
TTITLE7=もえてる
TTITLE8=イライラしてる
TTITLE9=君に逢いたい
TTITLE10=唄は悲しみに勝つ
EXTD=
EXTT0=
EXTT1=
EXTT2=
EXTT3=
EXTT4=
EXTT5=
EXTT6=
EXTT7=
EXTT8=
EXTT9=
EXTT10=
PLAYORDER=
